<svg xmlns="http://www.w3.org/2000/svg" width="1024" height="1024" viewBox="0 0 1024 1024">
<g>
<path d="M 374.73 754.95 C347.56,751.79 324.73,733.68 314.55,707.22 C306.18,685.47 307.80,666.29 320.02,642.56 C323.15,636.48 332.67,619.35 341.18,604.50 C349.68,589.65 360.16,571.20 364.46,563.50 C373.21,547.85 385.30,526.39 400.51,499.50 C406.11,489.60 414.84,474.14 419.92,465.14 C430.52,446.37 434.93,435.69 438.19,420.93 C440.43,410.75 440.49,409.18 440.49,355.64 L 440.50 300.78 L 435.24 298.82 C428.75,296.39 421.30,289.32 418.04,282.50 C414.49,275.05 414.58,265.37 418.28,257.84 C421.48,251.32 427.24,245.71 433.88,242.64 C438.39,240.55 439.76,240.49 493.00,240.21 C558.20,239.86 586.74,240.79 592.24,243.43 C597.40,245.90 602.57,251.46 605.79,258.00 C612.39,271.39 606.83,288.78 593.50,296.49 C591.30,297.76 588.04,299.11 586.25,299.48 L 583.00 300.16 L 583.00 351.64 C583.00,383.71 583.41,405.83 584.09,410.31 C587.28,431.40 592.83,445.16 610.64,476.16 C642.00,530.77 640.96,528.79 646.06,543.76 C651.31,559.16 653.39,571.90 653.35,588.50 C653.32,604.40 652.41,611.02 648.30,625.50 C632.81,679.96 584.60,725.13 522.00,743.82 C509.73,747.48 496.68,750.33 482.00,752.54 C463.32,755.36 392.01,756.96 374.73,754.95 ZM 470.14 730.96 C484.65,729.50 507.90,724.68 520.69,720.48 C534.99,715.79 559.29,703.62 570.50,695.54 C592.60,679.60 607.39,662.52 618.42,640.20 C625.00,626.90 629.40,611.93 630.25,600.00 L 630.50 596.50 L 622.53 596.20 C613.86,595.88 611.67,594.78 610.50,590.18 L 609.83 587.50 L 608.56 590.00 C607.86,591.38 605.81,598.58 604.00,606.00 C602.19,613.42 600.31,620.29 599.82,621.25 C598.77,623.32 593.76,623.62 592.17,621.71 C591.59,621.00 589.26,611.23 587.00,599.99 C584.74,588.75 582.73,579.40 582.54,579.21 C582.09,578.75 581.35,582.59 579.98,592.50 C577.83,608.06 574.75,623.53 573.36,625.75 C571.91,628.07 568.60,628.66 566.05,627.05 C563.75,625.60 564.27,620.31 569.35,593.00 C571.96,578.97 575.03,562.55 576.15,556.50 C577.28,550.45 578.67,544.94 579.23,544.25 C581.00,542.08 585.93,542.72 586.94,545.25 C588.00,547.93 595.03,587.51 595.01,590.75 C594.99,596.21 597.04,592.00 600.52,579.48 C603.92,567.28 604.53,565.91 606.80,565.34 C608.18,564.99 609.98,565.13 610.79,565.64 C611.61,566.15 614.12,570.95 616.37,576.29 L 620.46 586.00 L 625.77 586.00 L 631.07 586.00 L 630.46 580.75 C628.04,559.95 624.06,546.51 616.06,532.12 C613.43,527.38 604.17,511.12 595.48,496.00 C570.17,451.92 565.98,441.94 561.96,416.00 C560.21,404.75 560.02,397.92 560.01,347.46 L 560.00 291.42 L 562.25 286.98 C564.96,281.64 569.35,278.89 576.76,277.88 C583.29,277.00 586.00,274.83 586.00,270.50 C586.00,263.61 590.18,263.96 511.45,264.24 L 440.58 264.50 L 439.13 267.07 C437.37,270.21 438.26,274.53 440.97,275.98 C442.25,276.67 461.12,277.03 495.92,277.05 C525.07,277.06 549.13,277.41 549.39,277.82 C550.04,278.88 546.70,290.83 544.67,294.72 C543.74,296.49 542.11,298.40 541.06,298.97 C539.89,299.59 529.68,300.00 515.14,300.00 L 491.15 300.00 L 490.71 358.75 C490.34,407.88 490.00,418.89 488.62,426.00 C486.22,438.41 482.34,451.55 478.82,459.22 C476.16,465.01 475.24,466.09 472.12,467.10 C470.13,467.75 466.48,469.34 464.01,470.64 C461.54,471.94 459.21,473.00 458.84,473.00 C458.47,473.00 459.75,469.74 461.69,465.75 C468.15,452.48 471.32,443.59 473.98,431.21 C477.47,414.99 478.11,401.45 477.80,350.00 L 477.50 300.50 L 470.80 300.21 L 464.11 299.91 L 463.77 357.21 C463.44,411.65 463.32,414.97 461.26,424.00 C457.06,442.49 452.28,454.47 441.50,473.56 C437.17,481.23 428.31,496.85 421.81,508.28 C415.31,519.72 405.22,537.72 399.38,548.28 C393.55,558.85 386.57,571.38 383.89,576.13 C381.20,580.87 379.00,584.97 379.00,585.23 C379.00,585.49 384.56,585.79 391.34,585.90 L 403.69 586.10 L 405.49 581.30 C406.48,578.66 408.58,573.91 410.16,570.75 C412.70,565.66 413.37,565.00 416.04,565.00 C419.62,565.00 419.70,565.15 424.17,581.46 C427.99,595.43 427.15,596.90 433.00,566.04 C435.24,554.23 437.61,544.23 438.28,543.80 C440.23,542.56 443.66,542.88 444.93,544.42 C445.58,545.20 447.20,551.84 448.54,559.17 C449.88,566.50 452.82,582.62 455.07,595.00 C460.64,625.56 460.51,624.35 458.54,626.32 C457.61,627.24 456.08,628.00 455.12,628.00 C450.78,628.00 450.08,626.08 445.83,602.25 C443.54,589.46 441.55,579.12 441.39,579.28 C440.87,579.80 437.10,598.30 435.43,608.50 C433.60,619.70 432.05,623.00 428.63,623.00 C424.93,623.00 423.53,620.32 420.04,606.54 C418.23,599.42 416.22,592.04 415.56,590.15 L 414.38 586.73 L 412.65 591.24 L 410.93 595.75 L 404.01 596.43 C400.20,596.81 392.45,597.06 386.79,597.00 C381.13,596.93 375.54,596.91 374.36,596.94 C370.70,597.04 336.70,657.93 334.22,668.83 C330.27,686.13 335.25,704.15 347.38,716.46 C354.54,723.73 360.93,727.69 369.40,730.11 C374.75,731.64 380.67,731.87 417.64,731.93 C440.82,731.97 464.45,731.53 470.14,730.96 ZM 535.00 755.00 L 528.50 754.50 L 534.97 752.64 C544.06,750.02 560.55,742.83 570.81,737.02 L 579.50 732.09 L 614.50 732.22 C654.93,732.37 656.93,732.04 669.60,723.14 C682.01,714.43 689.09,702.46 691.21,686.59 C693.20,671.73 688.89,659.75 670.54,629.21 L 663.76 617.92 L 665.01 604.94 C665.75,597.21 665.97,588.31 665.55,582.98 C665.17,578.04 665.07,574.00 665.35,574.00 C665.62,574.00 667.15,576.36 668.74,579.25 C670.34,582.14 676.98,593.72 683.51,605.00 C707.36,646.20 710.05,651.89 713.41,668.21 C716.17,681.61 715.14,692.82 709.79,707.50 C701.81,729.42 682.79,746.67 659.36,753.23 C651.71,755.37 650.06,755.43 596.50,755.46 C566.25,755.48 538.58,755.28 535.00,755.00 ZM 270.38 716.74 C252.30,697.95 238.59,679.27 226.04,656.33 C205.69,619.11 194.78,580.70 191.96,536.40 C188.80,486.66 202.85,427.23 228.23,383.00 C258.13,330.89 297.98,292.56 351.59,264.36 C358.47,260.73 364.29,257.95 364.51,258.18 C364.74,258.40 361.68,260.56 357.71,262.96 C316.95,287.70 280.19,324.32 258.28,362.00 C244.67,385.40 236.31,403.92 229.60,425.50 C205.95,501.60 208.15,582.21 235.73,650.00 C240.88,662.66 248.20,677.67 252.82,685.00 C255.07,688.58 258.23,693.75 259.83,696.50 C261.44,699.25 267.08,707.24 272.36,714.25 C277.64,721.26 281.58,727.00 281.11,727.00 C280.64,727.00 275.81,722.38 270.38,716.74 ZM 743.00 726.49 C743.00,726.14 745.61,722.62 748.79,718.67 C779.81,680.28 800.21,631.92 807.94,578.50 C816.13,521.83 809.12,460.55 788.32,407.00 C766.05,349.68 725.54,300.21 674.35,267.82 C667.11,263.24 661.35,259.34 661.55,259.14 C662.11,258.55 686.67,271.72 695.47,277.32 C759.31,317.97 804.82,379.87 823.11,450.92 C835.33,498.41 835.61,543.47 823.96,590.67 C812.52,637.03 790.39,677.78 757.19,713.59 C749.91,721.45 743.00,727.73 743.00,726.49 ZM 598.65 718.32 C598.36,718.03 600.23,716.21 602.81,714.28 C616.55,704.01 634.58,683.37 644.53,666.51 C649.52,658.06 657.00,641.87 657.00,639.51 C657.00,635.48 659.50,638.29 666.47,650.14 C675.11,664.85 676.61,668.44 677.55,676.73 C678.85,688.32 675.21,699.18 667.22,707.53 C661.80,713.18 654.93,716.51 645.66,717.98 C638.88,719.06 599.67,719.34 598.65,718.32 ZM 287.21 660.09 C252.52,613.59 236.96,556.67 243.45,500.00 C245.22,484.57 246.18,479.58 250.17,465.00 C265.16,410.27 299.46,362.98 347.10,331.38 C358.71,323.67 385.65,309.32 386.64,310.31 C386.87,310.54 382.11,313.80 376.06,317.55 C345.17,336.70 316.37,366.35 298.62,397.29 C280.30,429.20 267.33,469.17 262.85,507.50 C261.20,521.60 261.19,556.71 262.83,569.00 C267.37,603.10 275.15,629.36 288.68,656.34 C291.11,661.20 292.96,665.61 292.78,666.15 C292.60,666.69 290.10,663.96 287.21,660.09 ZM 735.43 657.14 C746.33,635.44 753.42,614.77 757.91,591.62 C762.41,568.40 763.35,556.78 762.71,531.69 C761.93,500.61 757.79,476.30 748.56,448.50 C730.10,392.91 697.96,349.74 653.50,320.84 C637.58,310.49 636.48,309.60 643.23,312.49 C658.63,319.11 677.15,330.15 692.50,341.86 C700.69,348.12 717.59,364.60 727.02,375.54 C752.72,405.37 771.85,446.49 779.09,487.50 C781.76,502.63 782.74,532.21 781.09,547.95 C778.21,575.45 769.88,603.48 757.00,629.00 C751.35,640.20 733.86,666.00 731.92,666.00 C731.40,666.00 732.98,662.01 735.43,657.14 ZM 313.26 608.80 C305.54,596.56 298.67,578.01 294.93,559.30 C291.90,544.09 291.15,515.65 293.39,500.43 C300.99,448.78 330.22,403.85 375.28,374.55 C383.66,369.10 401.69,360.00 404.11,360.00 C404.74,360.00 400.81,362.97 395.38,366.59 C356.49,392.54 328.51,432.06 314.72,480.52 C307.65,505.36 305.48,523.91 306.30,552.48 C306.93,574.34 308.91,586.48 314.87,604.96 C316.55,610.16 317.77,614.57 317.58,614.75 C317.39,614.94 315.45,612.26 313.26,608.80 ZM 707.02 613.93 C707.01,613.61 708.14,609.56 709.53,604.93 C716.37,582.08 718.40,568.18 718.40,544.00 C718.41,522.50 717.01,510.67 712.06,490.43 C700.59,443.45 680.22,409.04 646.50,379.69 C641.55,375.38 633.57,369.33 628.77,366.24 C623.97,363.16 620.22,360.45 620.44,360.23 C621.12,359.55 637.57,367.61 646.27,372.87 C670.18,387.35 693.42,410.32 706.43,432.32 C721.09,457.12 729.49,483.60 732.05,513.12 C734.51,541.49 727.84,576.62 715.39,600.85 C711.36,608.69 707.08,615.38 707.02,613.93 ZM 344.07 560.50 C336.99,537.77 337.55,508.09 345.51,484.39 C355.68,454.07 379.06,427.56 411.20,409.89 C415.11,407.74 418.54,406.21 418.82,406.49 C419.10,406.77 419.15,407.14 418.92,407.31 C402.70,419.20 388.12,434.83 376.75,452.50 C359.82,478.83 350.00,512.20 348.35,549.00 C347.51,567.91 346.89,569.56 344.07,560.50 ZM 676.65 561.75 C676.33,559.41 676.06,553.00 676.04,547.50 C675.96,524.75 669.23,495.98 658.46,472.34 C648.39,450.24 631.13,427.65 613.49,413.46 C608.82,409.71 605.00,406.51 605.00,406.35 C605.00,404.85 622.28,414.86 631.38,421.64 C644.40,431.34 653.70,440.60 661.89,452.06 C673.54,468.33 679.76,482.83 683.64,502.73 C685.73,513.46 685.98,535.62 684.14,545.50 C682.50,554.25 678.97,566.00 677.97,566.00 C677.56,566.00 676.97,564.09 676.65,561.75 ZM 377.00 717.92 C364.60,715.53 353.47,706.21 349.11,694.56 C346.52,687.65 346.23,674.44 348.51,667.97 C349.34,665.62 357.10,651.16 365.76,635.85 L 381.50 608.01 L 387.96 608.26 L 394.42 608.50 L 395.68 614.74 C402.90,650.52 428.80,682.85 463.12,698.93 C473.68,703.88 487.15,707.82 496.38,708.65 C507.11,709.62 508.60,710.49 502.00,711.92 C491.26,714.24 473.34,716.95 462.00,717.96 C448.32,719.19 383.43,719.15 377.00,717.92 ZM 442.02 703.20 C414.81,684.61 396.16,660.93 386.70,632.93 L 385.29 628.77 L 374.63 647.82 C368.76,658.30 363.08,668.81 362.00,671.19 C356.47,683.37 363.47,698.84 376.63,703.53 C379.62,704.60 387.81,704.91 412.50,704.90 C442.91,704.90 444.38,704.81 442.02,703.20 ZM 492.30 689.56 C478.02,686.31 463.80,678.85 451.70,668.26 C445.81,663.11 438.66,655.00 439.38,654.29 C439.62,654.05 443.12,656.27 447.16,659.23 C471.33,676.95 494.05,683.87 521.15,681.78 C540.22,680.31 557.52,673.62 575.10,660.92 C579.62,657.67 583.73,655.00 584.24,655.00 C586.52,655.00 574.73,667.42 566.42,673.78 C559.99,678.69 548.27,684.58 539.00,687.54 C531.53,689.92 528.56,690.30 514.50,690.61 C503.18,690.86 496.69,690.55 492.30,689.56 ZM 496.50 662.68 C485.87,659.64 480.06,656.93 472.41,651.47 C466.65,647.36 460.14,640.50 461.11,639.57 C461.32,639.37 464.42,641.01 468.00,643.21 C478.25,649.54 486.78,653.10 496.50,655.11 C516.96,659.34 535.01,655.89 555.33,643.86 C559.08,641.64 562.46,640.13 562.83,640.50 C563.90,641.59 552.98,651.14 545.93,655.28 C530.64,664.25 511.82,667.07 496.50,662.68 ZM 501.25 617.96 L 487.00 605.90 L 487.00 587.39 L 487.00 568.88 L 491.25 565.05 C505.58,552.13 516.55,543.27 517.70,543.71 C518.77,544.13 518.97,552.23 518.76,586.85 C518.53,623.81 518.30,629.51 517.00,629.75 C516.17,629.90 509.09,624.59 501.25,617.96 ZM 540.57 618.43 C538.18,616.03 538.66,613.59 542.43,609.08 C548.03,602.38 550.27,595.05 549.78,585.00 C549.33,575.91 547.50,571.01 541.87,563.86 C537.66,558.51 538.17,554.00 542.99,554.00 C546.69,554.00 552.24,560.18 556.36,568.88 C559.31,575.11 559.50,576.18 559.50,587.00 C559.50,597.79 559.31,598.90 556.39,605.06 C553.08,612.05 546.34,620.00 543.73,620.00 C542.86,620.00 541.44,619.29 540.57,618.43 ZM 473.02 606.00 C464.16,605.31 463.88,604.66 464.23,585.66 C464.49,571.33 464.58,570.75 466.92,568.86 C468.80,567.34 470.56,566.98 474.92,567.21 L 480.50 567.50 L 480.77 586.43 C480.92,596.84 480.70,605.61 480.27,605.93 C479.85,606.25 476.59,606.28 473.02,606.00 ZM 527.65 604.17 C525.45,601.74 525.54,601.23 529.02,596.10 C531.38,592.61 532.00,590.62 532.00,586.50 C532.00,582.38 531.38,580.39 529.02,576.90 C525.54,571.76 525.51,571.63 527.57,569.57 C531.11,566.03 535.68,568.48 539.58,576.00 C542.32,581.29 542.14,593.22 539.25,598.68 C535.60,605.55 530.91,607.77 527.65,604.17 ZM 460.56 530.09 C459.81,528.88 467.32,521.25 473.31,517.13 C497.55,500.45 530.26,501.12 553.41,518.76 C558.56,522.68 564.71,529.62 563.82,530.51 C563.54,530.79 560.31,529.02 556.65,526.56 C535.19,512.17 511.20,508.61 488.29,516.40 C479.96,519.23 474.29,522.07 466.81,527.14 C463.68,529.26 460.86,530.59 460.56,530.09 ZM 440.00 513.06 C440.00,511.52 454.14,497.58 459.14,494.20 C484.14,477.27 518.05,473.28 545.81,483.99 C556.48,488.11 570.29,497.35 577.75,505.36 C586.84,515.12 585.69,516.22 575.00,508.00 C538.01,479.55 487.79,479.37 449.93,507.55 C441.13,514.10 440.00,514.73 440.00,513.06 Z" fill="rgba(0,0,0,1)"/>
</g>
</svg>